PathFileType	3	(X/Y/Z)	D:\VICON_DB\Goncalves\Pilot01\09-03-2026\bw_sq_120_02.trc
DataRate	CameraRate	NumFrames	NumMarkers	Units	OrigDataRate	OrigDataStartFrame	OrigNumFrames
200.0	200.0	9	34	mm	200.0	197	787	
Frame#	Time	LASI			RASI			LPSI			RPSI			LTHI			LTHAP			LTHAD			LKNE			LKNM			LTIB			LTIAP			LTIAD			LANK			LMED			LHEE			LTOE			LFMH			LSMH			LVMH			RTHI			RTHAP			RTHAD			RKNE			RKNM			RTIB			RTIAP			RTIAD			RANK			RMED			RHEE			RTOE			RFMH			RSMH			RVMH			
		X1	Y1	Z1	X2	Y2	Z2	X3	Y3	Z3	X4	Y4	Z4	X5	Y5	Z5	X6	Y6	Z6	X7	Y7	Z7	X8	Y8	Z8	X9	Y9	Z9	X10	Y10	Z10	X11	Y11	Z11	X12	Y12	Z12	X13	Y13	Z13	X14	Y14	Z14	X15	Y15	Z15	X16	Y16	Z16	X17	Y17	Z17	X18	Y18	Z18	X19	Y19	Z19	X20	Y20	Z20	X21	Y21	Z21	X22	Y22	Z22	X23	Y23	Z23	X24	Y24	Z24	X25	Y25	Z25	X26	Y26	Z26	X27	Y27	Z27	X28	Y28	Z28	X29	Y29	Z29	X30	Y30	Z30	X31	Y31	Z31	X32	Y32	Z32	X33	Y33	Z33	X34	Y34	Z34	
197	0.98	180.73677	838.5567	-1087.387	182.04822	842.18219	-1346.0553				369.02295	913.9787	-1246.611	165.42361	690.57214	-1008.0742	203.97708	746.06097	-1020.4484	187.60583	626.79834	-962.0899	167.75449	464.79987	-945.8465				226.6089	275.8942	-923.88245	138.43179	335.45456	-962.02936	186.66032	238.65273	-939.57928	285.84802	72.064217	-946.88037				319.55582	66.808388	-1003.8282	205.13217	71.47509	-952.42151	147.57076	45.34761	-973.03906				169.7003	24.354185	-895.81006	173.73732	620.55383	-1448.6885	176.9174	739.16675	-1396.5242	131.21225	664.09198	-1397.3159	159.70081	478.36945	-1447.277				189.55663	286.96738	-1477.8094	127.8376	324.84274	-1431.5663	154.35962	246.39426	-1434.1843	277.09772	63.669785	-1456.1677				307.16373	61.386372	-1408.4933	185.05577	69.431023	-1451.5898	133.06393	49.722626	-1434.4149				156.31175	17.615702	-1504.1708
198	0.985	181.97261	836.36023	-1087.4703	183.27359	840.15308	-1346.1874				369.97488	912.37756	-1246.7582	166.44098	689.87366	-1007.7392	205.3222	744.94043	-1020.3426	188.21878	626.05493	-961.60156	167.03232	464.29709	-944.88727				225.95674	275.52994	-923.31512	137.48514	334.93268	-961.16107	186.09766	238.19951	-939.05548	285.79056	72.000977	-946.88885				319.46484	66.87207	-1003.8248	205.09615	71.458092	-952.40198	147.55479	45.355972	-973.00891				169.70557	24.347599	-895.79907	173.93932	619.7995	-1449.0701	177.99181	738.13629	-1396.6929	131.81894	663.54248	-1397.5306	158.65881	477.79767	-1447.9417				188.55646	286.4924	-1478.2196	126.68929	324.25034	-1432.0326	153.57614	245.89874	-1434.4775	277.02841	63.642136	-1456.2217				307.10974	61.442425	-1408.546	185.02829	69.421143	-1451.5984	133.06522	49.724915	-1434.4277				156.30663	17.62212	-1504.1794
199	0.99	183.20634	834.1225	-1087.5594	184.49355	838.08887	-1346.3247				370.92395	910.75549	-1246.9103	167.46489	689.14386	-1007.4249	206.66885	743.7876	-1020.2493	188.83589	625.28375	-961.13293	166.3159	463.78223	-943.93781				225.30534	275.1619	-922.75372	136.54431	334.40607	-960.30688	185.53564	237.74428	-938.54028	285.73355	71.937538	-946.89752				319.37521	66.93438	-1003.8208	205.05988	71.439629	-952.38391	147.53886	45.363377	-972.98029				169.71097	24.342529	-895.789	174.1331	619.02209	-1449.4393	179.0564	737.08453	-1396.8594	132.41412	662.97192	-1397.7394	157.61391	477.21591	-1448.6018				187.55484	286.00983	-1478.6216	125.54047	323.65167	-1432.49	152.7908	245.39799	-1434.7626	276.95667	63.615761	-1456.2744				307.05429	61.498592	-1408.5942	184.99947	69.410393	-1451.6024	133.06468	49.726631	-1434.4384				156.30078	17.629417	-1504.1876
200	0.995	184.43816	831.84485	-1087.6556	185.70816	835.99005	-1346.468				371.87149	909.11292	-1247.0662	168.49229	688.38391	-1007.1334	208.01505	742.60358	-1020.1706	189.45369	624.48663	-960.68585	165.60361	463.25632	-942.99847				224.65392	274.79013	-922.19873	135.60902	333.87524	-959.46826	184.97377	237.28734	-938.03442	285.67612	71.87442	-946.90625				319.28699	66.99527	-1003.8162	205.02332	71.420158	-952.36743	147.52287	45.369713	-972.95319				169.71643	24.338797	-895.77991	174.32022	618.22162	-1449.7963	180.1113	736.01154	-1397.025	132.9987	662.38025	-1397.9429	156.56761	476.62396	-1449.2567				186.55324	285.52039	-1479.0148	124.39249	323.04709	-1432.9384	152.0052	244.89262	-1435.0387	276.8829	63.591019	-1456.3246				306.99744	61.554783	-1408.6376	184.96912	69.398712	-1451.6019	133.06207	49.727409	-1434.4463				156.29454	17.637365	-1504.1946
201	1	185.66805	829.52869	-1087.7599	186.91756	833.85748	-1346.618				372.81763	907.45001	-1247.2246	169.52049	687.59534	-1006.8665	209.35901	741.39032	-1020.1083	190.06911	623.66541	-960.26202	164.89403	462.72064	-942.06927				224.00182	274.41476	-921.6499	134.67908	333.34052	-958.64618	184.4119	236.82898	-937.53857	285.61774	71.812027	-946.91516				319.2002	67.054596	-1003.8112	204.98662	71.400085	-952.35254	147.50673	45.374954	-972.92792				169.72189	24.336245	-895.77191	174.50227	617.39856	-1450.1417	181.15692	734.91742	-1397.1902	133.57394	661.76782	-1398.1417	155.52165	476.02167	-1449.9058				185.55333	285.02499	-1479.3984	123.24675	322.43723	-1433.3776	151.22095	244.38318	-1435.3054	276.80762	63.568233	-1456.3719				306.93945	61.610878	-1408.6748	184.93697	69.386078	-1451.5969	133.0573	49.726955	-1434.4517				156.28812	17.645716	-1504.2004
202	1.005	186.896	827.17523	-1087.8722	188.12172	831.69165	-1346.7755				373.76108	905.76727	-1247.3856	170.54739	686.77954	-1006.6262	210.69928	740.14978	-1020.064	190.67953	622.82239	-959.86304	164.186	462.17661	-941.15045				223.34885	274.03586	-921.1076	133.75452	332.80228	-957.84125	183.85031	236.36935	-937.05347	285.55832	71.75071	-946.92395				319.11487	67.112122	-1003.8062	204.94997	71.379822	-952.33936	147.49051	45.379169	-972.90436				169.72723	24.334747	-895.76514	174.681	616.55322	-1450.4763	182.19377	733.80194	-1397.3567	134.14116	661.13483	-1398.337	154.47781	475.40906	-1450.5483				184.55672	284.52478	-1479.7731	122.10454	321.82266	-1433.8079	150.43948	243.87035	-1435.5632	276.73123	63.547657	-1456.4159				306.88049	61.666771	-1408.7059	184.90286	69.372475	-1451.5881	133.05048	49.725006	-1434.4542				156.28177	17.654205	-1504.2048
203	1.01	188.12178	824.78613	-1087.993	189.3206	829.49359	-1346.9407				374.69971	904.06586	-1247.5499	171.57144	685.93817	-1006.4144	212.03471	738.88409	-1020.0388	191.2829	621.96033	-959.48993	163.47874	461.62582	-940.2417				222.69525	273.6535	-920.57159	132.83563	332.26074	-957.05377	183.28972	235.90857	-936.57935	285.49786	71.690681	-946.93292				319.03131	67.167534	-1003.8011	204.91374	71.359756	-952.32794	147.4744	45.382458	-972.88281				169.73242	24.334188	-895.75964	174.85814	615.6864	-1450.8008	183.22249	732.66534	-1397.5253	134.70184	660.48169	-1398.5295	153.43813	474.78604	-1451.1842				183.56514	284.02072	-1480.1383	120.96718	321.20416	-1434.2297	149.66211	243.35484	-1435.8125	276.65421	63.529423	-1456.4561				306.82059	61.722336	-1408.731	184.86661	69.357872	-1451.5762	133.04172	49.721409	-1434.4536				156.27573	17.662567	-1504.2081
204	1.015	189.34515	822.36249	-1088.1221	190.5141	827.26416	-1347.1134				375.63123	902.34668	-1247.7177	172.59174	685.07306	-1006.2324	213.36459	737.59528	-1020.0335	191.87785	621.08185	-959.14331	162.772	461.06992	-939.34283				222.04169	273.26788	-920.04187	131.92288	331.71616	-956.28351	182.73116	235.4467	-936.11621	285.43686	71.63208	-946.94159				318.94977	67.220528	-1003.7958	204.87837	71.340248	-952.3183	147.45857	45.384964	-972.86304				169.73732	24.334475	-895.75531	175.0354	614.79877	-1451.1161	184.24387	731.50793	-1397.6975	135.25754	659.80902	-1398.7205	152.40457	474.15283	-1451.8129				182.58014	283.51419	-1480.4944	119.83597	320.58252	-1434.6434	148.88992	242.83742	-1436.0538	276.57703	63.513599	-1456.4926				306.7598	61.777489	-1408.7501	184.82808	69.342239	-1451.5612	133.03136	49.716057	-1434.4497				156.27014	17.670536	-1504.2098
205	1.02	190.56572	819.90582	-1088.259	191.70218	825.00433	-1347.2938				376.55396	900.61023	-1247.889	173.60783	684.18597	-1006.0811	214.68845	736.2854	-1020.048	192.46382	620.18939	-958.82343	162.0659	460.51047	-938.45374				221.38925	272.87933	-919.51843	131.017	331.16882	-955.52985	182.17569	234.98389	-935.6637	285.3757	71.57502	-946.94995				318.87067	67.27076	-1003.7904	204.84439	71.321655	-952.31006	147.44333	45.386845	-972.84503				169.74197	24.33551	-895.75208	175.21448	613.8913	-1451.4232	185.25887	730.33014	-1397.8737	135.80983	659.11737	-1398.9109	151.37926	473.50967	-1452.4336				181.60338	283.0065	-1480.8418	118.71222	319.95859	-1435.0497	148.12387	242.31883	-1436.2889	276.50006	63.50016	-1456.5248				306.69806	61.832191	-1408.7639	184.78714	69.325584	-1451.5446	133.01959	49.708939	-1434.4427				156.26529	17.677839	-1504.2103
